<svg xmlns="http://www.w3.org/2000/svg" xmlns:xlink="http://www.w3.org/1999/xlink" width="40" zoomAndPan="magnify" viewBox="0 0 30 30.000001" height="40" preserveAspectRatio="xMidYMid meet" version="1.0"><defs><clipPath id="9bf0b922c4"><path d="M 0.484375 0 L 29.515625 0 L 29.515625 29.03125 L 0.484375 29.03125 Z M 0.484375 0 " clip-rule="nonzero"/></clipPath></defs><g clip-path="url(#9bf0b922c4)"><path fill="#ffde59" d="M 7.734375 0 L 22.242188 0 C 22.714844 0 23.1875 0.046875 23.65625 0.140625 C 24.121094 0.230469 24.574219 0.371094 25.015625 0.550781 C 25.457031 0.734375 25.875 0.957031 26.269531 1.222656 C 26.664062 1.488281 27.03125 1.789062 27.367188 2.125 C 27.703125 2.460938 28.003906 2.828125 28.269531 3.222656 C 28.535156 3.617188 28.757812 4.035156 28.941406 4.476562 C 29.121094 4.917969 29.261719 5.371094 29.351562 5.835938 C 29.445312 6.304688 29.492188 6.777344 29.492188 7.253906 L 29.492188 21.757812 C 29.492188 22.234375 29.445312 22.703125 29.351562 23.171875 C 29.261719 23.636719 29.121094 24.089844 28.941406 24.53125 C 28.757812 24.972656 28.535156 25.390625 28.269531 25.785156 C 28.003906 26.179688 27.703125 26.546875 27.367188 26.882812 C 27.03125 27.222656 26.664062 27.523438 26.269531 27.785156 C 25.875 28.050781 25.457031 28.273438 25.015625 28.457031 C 24.574219 28.640625 24.121094 28.777344 23.65625 28.871094 C 23.1875 28.960938 22.714844 29.007812 22.242188 29.007812 L 7.734375 29.007812 C 7.261719 29.007812 6.789062 28.960938 6.320312 28.871094 C 5.855469 28.777344 5.402344 28.640625 4.960938 28.457031 C 4.519531 28.273438 4.101562 28.050781 3.707031 27.785156 C 3.3125 27.523438 2.945312 27.222656 2.609375 26.882812 C 2.269531 26.546875 1.96875 26.179688 1.707031 25.785156 C 1.441406 25.390625 1.21875 24.972656 1.035156 24.53125 C 0.855469 24.089844 0.714844 23.636719 0.625 23.171875 C 0.53125 22.703125 0.484375 22.234375 0.484375 21.757812 L 0.484375 7.253906 C 0.484375 6.777344 0.53125 6.304688 0.625 5.835938 C 0.714844 5.371094 0.855469 4.917969 1.035156 4.476562 C 1.21875 4.035156 1.441406 3.617188 1.707031 3.222656 C 1.96875 2.828125 2.269531 2.460938 2.609375 2.125 C 2.945312 1.789062 3.3125 1.488281 3.707031 1.222656 C 4.101562 0.957031 4.519531 0.734375 4.960938 0.550781 C 5.402344 0.371094 5.855469 0.230469 6.320312 0.140625 C 6.789062 0.046875 7.261719 0 7.734375 0 Z M 7.734375 0 " fill-opacity="1" fill-rule="nonzero"/></g></svg>